<svg xmlns="http://www.w3.org/2000/svg" viewBox="0 0 240 700"><defs><linearGradient id="c" x1="0" x2="1"><stop offset="0%" stop-color="#e8d5ba"/><stop offset="55%" stop-color="#fff4dd"/><stop offset="100%" stop-color="#dbc5a5"/></linearGradient></defs><path d="M220 0H40c-8 88-12 190-10 305 2 116 6 244 18 395 71-26 119-75 145-144 23-61 29-137 23-222C210 219 211 110 220 0z" fill="url(#c)"/><path d="M156 0c-20 111-23 226-18 345 5 115 18 220 38 315" fill="none" stroke="#d0b698" stroke-width="10" opacity=".45"/><path d="M104 0c-18 102-22 214-18 334 4 121 15 241 32 357" fill="none" stroke="#d0b698" stroke-width="8" opacity=".35"/></svg>