<svg xmlns="http://www.w3.org/2000/svg" viewBox="0 0 160 160"><path d="M46 36c-7-10-9-22-5-33 11 7 15 18 12 33" fill="none" stroke="#ffffff" stroke-width="6" stroke-linecap="round" opacity=".8"/><path d="M76 34c-5-10-5-22 1-32 9 8 11 19 7 32" fill="none" stroke="#ffffff" stroke-width="6" stroke-linecap="round" opacity=".8"/><path d="M28 54h78c10 0 18 8 18 18v32c0 22-18 40-40 40H52c-22 0-40-18-40-40V72c0-10 8-18 16-18z" fill="#fbfaf5"/><path d="M106 64h16c14 0 26 12 26 26s-12 26-26 26h-16" fill="none" stroke="#fbfaf5" stroke-width="12"/><path d="M22 96h92" stroke="#d8d4ca" stroke-width="6" opacity=".6"/></svg>